<?xml version="1.0" encoding="utf-8"?>
<!-- Generator: Adobe Illustrator 16.0.1, SVG Export Plug-In . SVG Version: 6.00 Build 0)  -->
<!DOCTYPE svg PUBLIC "-//W3C//DTD SVG 1.1//EN" "http://www.w3.org/Graphics/SVG/1.1/DTD/svg11.dtd">
<svg version="1.1"
	 id="svg1333" xmlns:svg="http://www.w3.org/2000/svg" xmlns:rdf="http://www.w3.org/1999/02/22-rdf-syntax-ns#" xmlns:inkscape="http://www.inkscape.org/namespaces/inkscape" xmlns:cc="http://web.resource.org/cc/" xmlns:dc="http://purl.org/dc/elements/1.1/" xmlns:sodipodi="http://inkscape.sourceforge.net/DTD/sodipodi-0.dtd" sodipodi:docname="BPSKSVG.svg" sodipodi:docbase="C:\Documents and Settings\Matt\My Documents\PhD\Images\Modulation schemes\Constellations" sodipodi:version="0.32" inkscape:version="0.43"
	 xmlns="http://www.w3.org/2000/svg" xmlns:xlink="http://www.w3.org/1999/xlink" x="0px" y="0px" width="1197.975px"
	 height="1188px" viewBox="0 -9.78 1197.975 1188" enable-background="new 0 -9.78 1197.975 1188" xml:space="preserve">
<sodipodi:namedview  id="base" bordercolor="#666666" pagecolor="#ffffff" gridtolerance="1px" borderopacity="1.0" inkscape:cx="313.77055" inkscape:zoom="1.2409137" inkscape:cy="321.94021" gridspacingy="5px" showgrid="true" gridspacingx="5px" gridempspacing="5" inkscape:window-y="-4" inkscape:current-layer="layer1" inkscape:window-x="-4" inkscape:pageshadow="2" inkscape:window-width="1400" inkscape:document-units="px" inkscape:grid-bbox="true" inkscape:window-height="966" inkscape:pageopacity="0.0" inkscape:grid-points="true">
	</sodipodi:namedview>
<g id="path3965">
	<g>
		<path fill="none" stroke="#000000" stroke-width="3" d="M902.34,18.188c0,551.5,0,12.412,0,539.107"/>
		<g>
			<polygon points="891.12,21.469 902.34,2.04 913.56,21.469 			"/>
		</g>
		<g>
			<polygon points="891.12,554.01 902.34,573.439 913.56,554.01 			"/>
		</g>
	</g>
</g>
<text transform="matrix(1 0 0 1 917.1108 21.4688)" font-family="'ArialMT'" font-size="24">Q</text>
<text transform="matrix(1 0 0 1 1170.4712 321.9385)" font-family="'Verdana'" font-size="24">I</text>
<path fill="none" stroke="#000000" d="M683.808,182.791"/>
<path fill="none" stroke="#000000" d="M663.79,149.939"/>
<path fill="none" stroke="#000000" d="M469.79,578.458"/>
<path fill="none" stroke="#000000" d="M1194.79,387.219"/>
<path fill="none" stroke="#000000" d="M837.868,317.46"/>
<path fill="none" stroke="#000000" d="M687.868,317.46"/>
<g>
	<g>
		<line fill="none" stroke="#000000" stroke-width="2" stroke-miterlimit="10" x1="902.42" y1="287.459" x2="692.45" y2="80.324"/>
		<g>
			<polygon points="701.649,78.996 694.208,82.059 691.247,89.541 683.95,71.939 			"/>
		</g>
	</g>
</g>
<g>
	<g>
		<path fill="none" stroke="#0A0707" stroke-width="2.713" stroke-linecap="round" d="M920.906,259.568
			c-14.43-5.492-26.809-5.047-40.776,2.693"/>
		<g>
			<polygon fill="#0A0707" points="919.449,254.012 919.461,259.033 915.855,262.527 927.745,262.529 			"/>
		</g>
	</g>
</g>
<g>
	<g>
		
			<line fill="none" stroke="#000000" stroke-width="2" stroke-miterlimit="10" x1="903.42" y1="288.459" x2="1110.467" y2="80.402"/>
		<g>
			<polygon points="1111.754,89.607 1108.725,82.153 1101.256,79.159 1118.889,71.939 			"/>
		</g>
	</g>
</g>
<text transform="matrix(1 0 0 1 907.4507 249.9395)" font-family="'MyriadPro-Regular'" font-size="24">90째</text>
<text transform="matrix(1 0 0 1 610.9507 21.4395)" font-family="'MyriadPro-Regular'" font-size="24">b</text>
<text transform="matrix(1 0 0 1 624.6069 21.4395)" font-family="'MyriadPro-Regular'" font-size="24">)</text>
<g id="path3965_1_">
	<g>
		<path fill="none" stroke="#000000" stroke-width="3" d="M1173.803,285.938c-557.251,0-12.535,0-544.737,0"/>
		<g>
			<polygon points="1170.522,274.719 1189.95,285.938 1170.522,297.158 			"/>
		</g>
		<g>
			<polygon points="632.351,274.719 612.921,285.938 632.351,297.158 			"/>
		</g>
	</g>
</g>
<g id="path3965_6_">
	<g>
		<path fill="none" stroke="#000000" stroke-width="3" d="M561.434,288.419c-551.5,0-12.412,0-539.108,0"/>
		<g>
			<polygon points="558.15,277.2 577.58,288.419 558.15,299.638 			"/>
		</g>
		<g>
			<polygon points="25.61,277.2 6.181,288.419 25.61,299.638 			"/>
		</g>
	</g>
</g>
<path fill="none" stroke="#000000" d="M396.829,69.887"/>
<path fill="none" stroke="#000000" d="M429.681,49.869"/>
<path fill="none" stroke="#000000" d="M-7.838,462.869"/>
<path fill="none" stroke="#000000" d="M827.401-16.131"/>
<path fill="none" stroke="#000000" d="M262.16,223.947"/>
<path fill="none" stroke="#000000" d="M262.16,73.947"/>
<g>
	<g>
		
			<line fill="none" stroke="#000000" stroke-width="2" stroke-miterlimit="10" x1="292.161" y1="288.499" x2="499.296" y2="78.529"/>
		<g>
			<polygon points="500.623,87.729 497.561,80.288 490.078,77.327 507.681,70.029 			"/>
		</g>
	</g>
</g>
<g>
	<g>
		<path fill="none" stroke="#0A0707" stroke-width="2.713" stroke-linecap="round" d="M320.052,306.985
			c5.492-14.43,5.048-26.809-2.692-40.776"/>
		<g>
			<polygon fill="#0A0707" points="325.608,305.528 320.587,305.54 317.093,301.935 317.091,313.824 			"/>
		</g>
	</g>
</g>
<g>
	<g>
		
			<line fill="none" stroke="#000000" stroke-width="2" stroke-miterlimit="10" x1="291.161" y1="289.499" x2="499.218" y2="496.547"/>
		<g>
			<polygon points="490.012,497.834 497.467,494.804 500.46,487.335 507.681,504.969 			"/>
		</g>
	</g>
</g>
<g id="path3965_2_">
	<g>
		<path fill="none" stroke="#000000" stroke-width="3" d="M293.682,559.883c0-557.252,0-12.535,0-544.739"/>
		<g>
			<polygon points="304.901,556.6 293.682,576.029 282.462,556.6 			"/>
		</g>
		<g>
			<polygon points="304.901,18.429 293.682,-1 282.462,18.429 			"/>
		</g>
	</g>
</g>
<text transform="matrix(1 0 0 1 308.1108 17.4688)" font-family="'ArialMT'" font-size="24">Q</text>
<text transform="matrix(1 0 0 1 562.4712 317.9385)" font-family="'Verdana'" font-size="24">I</text>
<text transform="matrix(1 0 0 1 329.4507 279.9395)" font-family="'MyriadPro-Regular'" font-size="24">90째</text>
<text transform="matrix(1 0 0 1 3.9507 21.4395)" font-family="'MyriadPro-Regular'" font-size="24">a</text>
<text transform="matrix(1 0 0 1 15.5186 21.4395)" font-family="'MyriadPro-Regular'" font-size="24">)</text>
<path fill="none" stroke="#000000" d="M744.13,564.729"/>
<path fill="none" stroke="#000000" d="M1812.649,112.729"/>
<path fill="none" stroke="#000000" d="M2313.903,389.536"/>
<path fill="none" stroke="#000000" d="M2333.92,422.389"/>
<path fill="none" stroke="#000000" d="M1920.92-15.13"/>
<path fill="none" stroke="#000000" d="M1802.92,185.108"/>
<path fill="none" stroke="#000000" d="M2159.842,254.868"/>
<path fill="none" stroke="#000000" d="M2309.842,254.868"/>
<g>
	<g>
		<line fill="none" stroke="#000000" stroke-miterlimit="10" x1="294.29" y1="873.868" x2="504.26" y2="1081.003"/>
		<g>
			<polygon points="495.061,1082.331 502.502,1079.269 505.463,1071.786 512.76,1089.389 			"/>
		</g>
	</g>
</g>
<g>
	<g>
		<line fill="none" stroke="#000000" stroke-miterlimit="10" x1="293.29" y1="872.868" x2="86.243" y2="1080.926"/>
		<g>
			<polygon points="84.956,1071.721 87.985,1079.175 95.454,1082.169 77.821,1089.389 			"/>
		</g>
	</g>
</g>
<path fill="none" stroke="#000000" d="M2170.309,588.458"/>
<text transform="matrix(1 0 0 1 296.4507 935.9395)" font-family="'MyriadPro-Regular'" font-size="24">90째</text>
<g id="path3965_7_">
	<g>
		<path fill="none" stroke="#000000" stroke-width="3" d="M293.34,605.147c0,551.5,0,12.412,0,539.107"/>
		<g>
			<polygon points="282.12,608.429 293.34,589 304.559,608.429 			"/>
		</g>
		<g>
			<polygon points="282.12,1140.97 293.34,1160.399 304.559,1140.97 			"/>
		</g>
	</g>
</g>
<g id="path3965_5_">
	<g>
		<path fill="none" stroke="#000000" stroke-width="3" d="M564.803,872.897c-557.252,0-12.535,0-544.736,0"/>
		<g>
			<polygon points="561.522,861.679 580.95,872.897 561.522,884.118 			"/>
		</g>
		<g>
			<polygon points="23.35,861.679 3.92,872.897 23.35,884.118 			"/>
		</g>
	</g>
</g>
<g id="path3965_9_">
	<g>
		<path fill="none" stroke="#000000" stroke-width="3" d="M1171.434,873.419c-551.5,0-12.412,0-539.109,0"/>
		<g>
			<polygon points="1168.151,862.2 1187.581,873.419 1168.151,884.638 			"/>
		</g>
		<g>
			<polygon points="635.61,862.2 616.181,873.419 635.61,884.638 			"/>
		</g>
	</g>
</g>
<path fill="none" stroke="#000000" d="M1006.829,654.888"/>
<path fill="none" stroke="#000000" d="M1039.68,634.869"/>
<path fill="none" stroke="#000000" d="M602.163,1047.869"/>
<path fill="none" stroke="#000000" d="M872.161,808.947"/>
<path fill="none" stroke="#000000" d="M872.161,658.947"/>
<g>
	<g>
		
			<line fill="none" stroke="#000000" stroke-width="2" stroke-miterlimit="10" x1="902.161" y1="873.499" x2="1109.295" y2="663.528"/>
		<g>
			<polygon points="1110.624,672.729 1107.561,665.288 1100.079,662.327 1117.68,655.028 			"/>
		</g>
	</g>
</g>
<g>
	<g>
		
			<line fill="none" stroke="#000000" stroke-width="2" stroke-miterlimit="10" x1="901.161" y1="874.499" x2="1109.217" y2="1081.547"/>
		<g>
			<polygon points="1100.012,1082.834 1107.467,1079.804 1110.459,1072.335 1117.68,1089.969 			"/>
		</g>
	</g>
</g>
<g id="path3965_8_">
	<g>
		<path fill="none" stroke="#000000" stroke-width="3" d="M903.682,1144.883c0-557.252,0-12.535,0-544.739"/>
		<g>
			<polygon points="914.901,1141.6 903.682,1161.029 892.461,1141.6 			"/>
		</g>
		<g>
			<polygon points="914.901,603.429 903.682,584 892.461,603.429 			"/>
		</g>
	</g>
</g>
<text transform="matrix(1 0 0 1 918.1108 602.4688)" font-family="'ArialMT'" font-size="24">Q</text>
<text transform="matrix(1 0 0 1 1172.4712 902.9385)" font-family="'Verdana'" font-size="24">I</text>
<text transform="matrix(1 0 0 1 944.4507 868.9395)" font-family="'MyriadPro-Regular'" font-size="24">90째</text>
<text transform="matrix(1 0 0 1 3.9507 614.4395)" font-family="'MyriadPro-Regular'" font-size="24">c</text>
<text transform="matrix(1 0 0 1 15.5186 614.4395)" font-family="'MyriadPro-Regular'" font-size="24">)</text>
<g>
	<g>
		<path fill="none" stroke="#000000" stroke-miterlimit="10" d="M935.129,850.535c9.892,16.336,5.894,43.192-7.654,50.185"/>
		<g>
			<path d="M936.065,852.085l4.189-0.473l-0.01-0.147l-5.442-3.217c-1.608-1.343-3.218-2.686-4.827-4.028
				c0.896,1.895,1.795,3.788,2.691,5.683l1.752,6.074l0.123,0.06L936.065,852.085z"/>
		</g>
	</g>
</g>
<g>
	<g>
		<path fill="none" stroke="#000000" stroke-miterlimit="10" d="M267.975,900.22c8.97,10.602,33.901,11.893,46.592,6.042"/>
		<g>
			<path d="M312.892,907.018l-3.88-1.65l0.052-0.139l6.134-1.527c1.926-0.827,3.851-1.654,5.777-2.481
				c-1.4,1.56-2.802,3.117-4.202,4.678l-3.414,5.319l-0.135,0.022L312.892,907.018z"/>
		</g>
	</g>
</g>
<text transform="matrix(1 0 0 1 309.1108 609.4688)" font-family="'ArialMT'" font-size="24">Q</text>
<text transform="matrix(1 0 0 1 568.4712 901.9385)" font-family="'Verdana'" font-size="24">I</text>
<text transform="matrix(1 0 0 1 635.9751 615.2197)" font-family="'MyriadPro-Regular'" font-size="24">d)</text>
</svg>
