<?xml version="1.0" encoding="utf-8"?>
<!-- Generator: Adobe Illustrator 16.0.1, SVG Export Plug-In . SVG Version: 6.00 Build 0)  -->
<!DOCTYPE svg PUBLIC "-//W3C//DTD SVG 1.1//EN" "http://www.w3.org/Graphics/SVG/1.1/DTD/svg11.dtd">
<svg version="1.1" id="Layer_1" xmlns="http://www.w3.org/2000/svg" xmlns:xlink="http://www.w3.org/1999/xlink" x="0px" y="0px"
	 width="736.515px" height="314.106px" viewBox="0 0 736.515 314.106" enable-background="new 0 0 736.515 314.106"
	 xml:space="preserve">
<g id="g2485">
	<path id="path2487" fill="none" stroke="#010101" stroke-width="2" stroke-linecap="round" stroke-linejoin="round" d="M1,63.107
		l0.9-2.2l1-2.2l0.9-2.1l0.9-2.1l0.9-2l1-1.9l0.9-1.8l0.9-1.7l0.9-1.5l1-1.3l0.9-1.2l0.9-1l1-0.9l0.9-0.6l0.9-0.4l0.9-0.2h1l0.9,0.2
		l0.9,0.4l0.9,0.6l1,0.9l0.9,1l0.9,1.2l1,1.3l0.9,1.5l0.9,1.7l0.9,1.8l1,1.9l0.9,2l0.9,2.1l0.9,2.1l1,2.2l0.9,2.2l0.9,2.2l1,2.2
		l0.9,2.1l0.9,2.1l0.9,2l1,1.9l0.9,1.8l0.9,1.7l0.9,1.5l1,1.3l0.9,1.2l0.9,1l1,0.9l0.9,0.6l0.9,0.4l0.9,0.2h1l0.9-0.2l0.9-0.4
		l0.9-0.6l1-0.9l0.9-1l0.9-1.2l1-1.3l0.9-1.5l0.9-1.7l0.9-1.8l1-1.9l0.9-2l0.9-2.1l0.9-2.1l1-2.2l0.9-2.2l0.9-2.2l1-2.2l0.9-2.1
		l0.9-2.1l0.9-2l1-1.9l0.9-1.8l0.9-1.7l0.9-1.5l1-1.3l0.9-1.2l0.9-1l1-0.9l0.9-0.6l0.9-0.4l0.9-0.2h1l0.9,0.2l0.9,0.4l0.9,0.6l1,0.9
		l0.9,1l0.9,1.2l1,1.3l0.9,1.5l0.9,1.7l0.9,1.8l1,1.9l0.9,2l0.9,2.1l0.9,2.1l1,2.2l0.9,2.2"/>
</g>
<g id="g2485_1_">
	<path id="path2487_1_" fill="none" stroke="#010101" stroke-width="2" stroke-linecap="round" stroke-linejoin="round" d="
		M184.6,63.106l-0.9,2.2l-1,2.2l-0.9,2.1l-0.9,2.1l-0.9,2l-1,1.9l-0.9,1.8l-0.9,1.7l-0.9,1.5l-1,1.3l-0.9,1.2l-0.9,1l-1,0.9
		l-0.9,0.6l-0.9,0.4l-0.9,0.2h-1l-0.9-0.2l-0.9-0.4l-0.9-0.6l-1-0.9l-0.9-1l-0.9-1.2l-1-1.3l-0.9-1.5l-0.9-1.7l-0.9-1.8l-1-1.9
		l-0.9-2l-0.9-2.1l-0.9-2.1l-1-2.2l-0.9-2.2l-0.9-2.2l-1-2.2l-0.9-2.1l-0.9-2.1l-0.9-2l-1-1.9l-0.9-1.8l-0.9-1.7l-0.9-1.5l-1-1.3
		l-0.9-1.2l-0.9-1l-1-0.9l-0.9-0.6l-0.9-0.4l-0.9-0.2h-1l-0.9,0.2l-0.9,0.4l-0.9,0.6l-1,0.9l-0.9,1l-0.9,1.2l-1,1.3l-0.9,1.5
		l-0.9,1.7l-0.9,1.8l-1,1.9l-0.9,2l-0.9,2.1l-0.9,2.1l-1,2.2l-0.9,2.2l-0.9,2.2l-1,2.2l-0.9,2.1l-0.9,2.1l-0.9,2l-1,1.9l-0.9,1.8
		l-0.9,1.7l-0.9,1.5l-1,1.3l-0.9,1.2l-0.9,1l-1,0.9l-0.9,0.6l-0.9,0.4l-0.9,0.2h-1l-0.9-0.2l-0.9-0.4l-0.9-0.6l-1-0.9l-0.9-1
		l-0.9-1.2l-1-1.3l-0.9-1.5l-0.9-1.7l-0.9-1.8l-1-1.9l-0.9-2l-0.9-2.1l-0.9-2.1l-1-2.2l-0.9-2.2"/>
</g>
<line fill="none" stroke="#010101" stroke-width="2" stroke-linecap="round" stroke-linejoin="round" x1="184.714" y1="63.106" x2="368.314" y2="63.106"/>
<g id="g2485_3_">
	<path id="path2487_3_" fill="none" stroke="#010101" stroke-width="2" stroke-linecap="round" stroke-linejoin="round" d="
		M368.313,63.107l0.9-2.2l1-2.2l0.9-2.1l0.9-2.1l0.899-2l1-1.9l0.899-1.8l0.9-1.7l0.9-1.5l1-1.3l0.9-1.2l0.899-1l1-0.9l0.899-0.6
		l0.9-0.4l0.9-0.2h1l0.9,0.2l0.899,0.4l0.899,0.6l1,0.9l0.9,1l0.9,1.2l1,1.3l0.9,1.5l0.899,1.7l0.899,1.8l1,1.9l0.9,2l0.9,2.1
		l0.9,2.1l1,2.2l0.899,2.2l0.899,2.2l1,2.2l0.9,2.1l0.9,2.1l0.9,2l1,1.9l0.899,1.8l0.899,1.7l0.9,1.5l1,1.3l0.9,1.2l0.9,1l1,0.9
		l0.899,0.6l0.899,0.4l0.9,0.2h1l0.9-0.2l0.9-0.4l0.899-0.6l1-0.9l0.899-1l0.9-1.2l1-1.3l0.9-1.5l0.9-1.7l0.899-1.8l1-1.9l0.899-2
		l0.9-2.1l0.9-2.1l1-2.2l0.9-2.2l0.899-2.2l1-2.2l0.899-2.1l0.9-2.1l0.9-2l1-1.9l0.9-1.8l0.899-1.7l0.899-1.5l1-1.3l0.9-1.2l0.9-1
		l1-0.9l0.9-0.6l0.899-0.4l0.899-0.2h1l0.9,0.2l0.9,0.4l0.9,0.6l1,0.9l0.899,1l0.899,1.2l1,1.3l0.9,1.5l0.9,1.7l0.9,1.8l1,1.9l0.9,2
		l0.898,2.1l0.9,2.1l1,2.2l0.9,2.2"/>
</g>
<g id="g2485_2_">
	<path id="path2487_2_" fill="none" stroke="#010101" stroke-width="2" stroke-linecap="round" stroke-linejoin="round" d="
		M551.915,63.106l-0.9,2.2l-1,2.2l-0.9,2.1l-0.9,2.1l-0.9,2l-1,1.9l-0.898,1.8l-0.9,1.7l-0.9,1.5l-1,1.3l-0.9,1.2l-0.9,1l-1,0.9
		l-0.898,0.6l-0.9,0.4l-0.9,0.2h-1l-0.9-0.2l-0.9-0.4l-0.898-0.6l-1-0.9l-0.9-1l-0.9-1.2l-1-1.3l-0.9-1.5l-0.9-1.7l-0.898-1.8
		l-1-1.9l-0.9-2l-0.9-2.1l-0.9-2.1l-1-2.2l-0.9-2.2l-0.898-2.2l-1-2.2l-0.9-2.1l-0.9-2.1l-0.9-2l-1-1.9l-0.9-1.8l-0.898-1.7
		l-0.9-1.5l-1-1.3l-0.9-1.2l-0.9-1l-1-0.9l-0.9-0.6l-0.898-0.4l-0.9-0.2h-1l-0.9,0.2l-0.9,0.4l-0.9,0.6l-1,0.9l-0.898,1l-0.9,1.2
		l-1,1.3l-0.9,1.5l-0.9,1.7l-0.9,1.8l-1,1.9l-0.898,2l-0.9,2.1l-0.9,2.1l-1,2.2l-0.9,2.2l-0.9,2.2l-1,2.2l-0.898,2.1l-0.9,2.1
		l-0.9,2l-1,1.9l-0.9,1.8l-0.9,1.7l-0.898,1.5l-1,1.3l-0.9,1.2l-0.9,1l-1,0.9l-0.9,0.6l-0.9,0.4l-0.898,0.2h-1l-0.9-0.2l-0.9-0.4
		l-0.9-0.6l-1-0.9l-0.9-1l-0.898-1.2l-1-1.3l-0.9-1.5l-0.9-1.7l-0.9-1.8l-1-1.9l-0.9-2l-0.898-2.1l-0.9-2.1l-1-2.2l-0.9-2.2"/>
</g>
<path fill="none" stroke="#010101" stroke-width="2" stroke-linecap="round" stroke-linejoin="round" d="M586.314,314.106"/>
<path fill="none" stroke="#010101" stroke-width="2" stroke-linecap="round" stroke-linejoin="round" d="M552.028,63.107"/>
<g id="g2485_5_">
	<path id="path2487_5_" fill="none" stroke="#010101" stroke-width="2" stroke-linecap="round" stroke-linejoin="round" d="
		M551.914,63.108l0.9-2.2l1-2.2l0.9-2.1l0.9-2.1l0.899-2l1-1.9l0.899-1.8l0.9-1.7l0.9-1.5l1-1.3l0.9-1.2l0.899-1l1-0.9l0.899-0.6
		l0.9-0.4l0.9-0.2h1l0.9,0.2l0.899,0.4l0.899,0.6l1,0.9l0.9,1l0.9,1.2l1,1.3l0.9,1.5l0.899,1.7l0.899,1.8l1,1.9l0.9,2l0.9,2.1
		l0.9,2.1l1,2.2l0.899,2.2l0.899,2.2l1,2.2l0.9,2.1l0.9,2.1l0.9,2l1,1.9l0.899,1.8l0.899,1.7l0.9,1.5l1,1.3l0.9,1.2l0.9,1l1,0.9
		l0.899,0.6l0.899,0.4l0.9,0.2h1l0.9-0.2l0.9-0.4l0.899-0.6l1-0.9l0.899-1l0.9-1.2l1-1.3l0.9-1.5l0.9-1.7l0.899-1.8l1-1.9l0.899-2
		l0.9-2.1l0.9-2.1l1-2.2l0.9-2.2l0.899-2.2l1-2.2l0.899-2.1l0.9-2.1l0.9-2l1-1.9l0.9-1.8l0.899-1.7l0.899-1.5l1-1.3l0.9-1.2l0.9-1
		l1-0.9l0.9-0.6l0.899-0.4l0.899-0.2h1l0.9,0.2l0.9,0.4l0.9,0.6l1,0.9l0.899,1l0.899,1.2l1,1.3l0.9,1.5l0.9,1.7l0.9,1.8l1,1.9l0.9,2
		l0.898,2.1l0.9,2.1l1,2.2l0.9,2.2"/>
</g>
<g id="g2485_4_">
	<path id="path2487_4_" fill="none" stroke="#010101" stroke-width="2" stroke-linecap="round" stroke-linejoin="round" d="
		M735.516,63.107l-0.9,2.2l-1,2.2l-0.9,2.1l-0.9,2.1l-0.9,2l-1,1.9l-0.898,1.8l-0.9,1.7l-0.9,1.5l-1,1.3l-0.9,1.2l-0.9,1l-1,0.9
		l-0.898,0.6l-0.9,0.4l-0.9,0.2h-1l-0.9-0.2l-0.9-0.4l-0.898-0.6l-1-0.9l-0.9-1l-0.9-1.2l-1-1.3l-0.9-1.5l-0.9-1.7l-0.898-1.8
		l-1-1.9l-0.9-2l-0.9-2.1l-0.9-2.1l-1-2.2l-0.9-2.2l-0.898-2.2l-1-2.2l-0.9-2.1l-0.9-2.1l-0.9-2l-1-1.9l-0.9-1.8l-0.898-1.7
		l-0.9-1.5l-1-1.3l-0.9-1.2l-0.9-1l-1-0.9l-0.9-0.6l-0.898-0.4l-0.9-0.2h-1l-0.9,0.2l-0.9,0.4l-0.9,0.6l-1,0.9l-0.898,1l-0.9,1.2
		l-1,1.3l-0.9,1.5l-0.9,1.7l-0.9,1.8l-1,1.9l-0.898,2l-0.9,2.1l-0.9,2.1l-1,2.2l-0.9,2.2l-0.9,2.2l-1,2.2l-0.898,2.1l-0.9,2.1
		l-0.9,2l-1,1.9l-0.9,1.8l-0.9,1.7l-0.898,1.5l-1,1.3l-0.9,1.2l-0.9,1l-1,0.9l-0.9,0.6l-0.9,0.4l-0.898,0.2h-1l-0.9-0.2l-0.9-0.4
		l-0.9-0.6l-1-0.9l-0.9-1l-0.898-1.2l-1-1.3l-0.9-1.5l-0.9-1.7l-0.9-1.8l-1-1.9l-0.9-2l-0.898-2.1l-0.9-2.1l-1-2.2l-0.9-2.2"/>
</g>
<path fill="none" stroke="#010101" stroke-width="2" stroke-linecap="round" stroke-linejoin="round" d="M735.629,63.107"/>
<text transform="matrix(1 0 0 1 1 26.6157)" font-family="'MyriadPro-Regular'" font-size="12">Amplitude Shift Keying (ASK)</text>
<g id="g2485_7_">
	<path id="path2487_7_" fill="none" stroke="#010101" stroke-width="2" stroke-linecap="round" stroke-linejoin="round" d="
		M1,157.054l0.9-2.2l1-2.2l0.9-2.1l0.9-2.1l0.9-2l1-1.9l0.9-1.8l0.9-1.7l0.9-1.5l1-1.3l0.9-1.2l0.9-1l1-0.9l0.9-0.6l0.9-0.4l0.9-0.2
		h1l0.9,0.2l0.9,0.4l0.9,0.6l1,0.9l0.9,1l0.9,1.2l1,1.3l0.9,1.5l0.9,1.7l0.9,1.8l1,1.9l0.9,2l0.9,2.1l0.9,2.1l1,2.2l0.9,2.2l0.9,2.2
		l1,2.2l0.9,2.1l0.9,2.1l0.9,2l1,1.9l0.9,1.8l0.9,1.7l0.9,1.5l1,1.3l0.9,1.2l0.9,1l1,0.9l0.9,0.6l0.9,0.4l0.9,0.2h1l0.9-0.2l0.9-0.4
		l0.9-0.6l1-0.9l0.9-1l0.9-1.2l1-1.3l0.9-1.5l0.9-1.7l0.9-1.8l1-1.9l0.9-2l0.9-2.1l0.9-2.1l1-2.2l0.9-2.2l0.9-2.2l1-2.2l0.9-2.1
		l0.9-2.1l0.9-2l1-1.9l0.9-1.8l0.9-1.7l0.9-1.5l1-1.3l0.9-1.2l0.9-1l1-0.9l0.9-0.6l0.9-0.4l0.9-0.2h1l0.9,0.2l0.9,0.4l0.9,0.6l1,0.9
		l0.9,1l0.9,1.2l1,1.3l0.9,1.5l0.9,1.7l0.9,1.8l1,1.9l0.9,2l0.9,2.1l0.9,2.1l1,2.2l0.9,2.2"/>
</g>
<g id="g2485_6_">
	<path id="path2487_6_" fill="none" stroke="#010101" stroke-width="2" stroke-linecap="round" stroke-linejoin="round" d="
		M184.601,157.053l-0.9,2.2l-1,2.2l-0.9,2.1l-0.9,2.1l-0.899,2l-1,1.9l-0.899,1.8l-0.9,1.7l-0.9,1.5l-1,1.3l-0.9,1.2l-0.899,1
		l-1,0.9l-0.899,0.6l-0.9,0.4l-0.9,0.2h-1l-0.9-0.2l-0.899-0.4l-0.899-0.6l-1-0.9l-0.9-1l-0.9-1.2l-1-1.3l-0.9-1.5l-0.899-1.7
		l-0.899-1.8l-1-1.9l-0.9-2l-0.9-2.1l-0.9-2.1l-1-2.2l-0.899-2.2l-0.899-2.2l-1-2.2l-0.9-2.1l-0.9-2.1l-0.9-2l-1-1.9l-0.899-1.8
		l-0.899-1.7l-0.9-1.5l-1-1.3l-0.9-1.2l-0.9-1l-1-0.9l-0.899-0.6l-0.899-0.4l-0.9-0.2h-1l-0.9,0.2l-0.9,0.4l-0.899,0.6l-1,0.9
		l-0.899,1l-0.9,1.2l-1,1.3l-0.9,1.5l-0.9,1.7l-0.899,1.8l-1,1.9l-0.899,2l-0.9,2.1l-0.9,2.1l-1,2.2l-0.9,2.2l-0.899,2.2l-1,2.2
		l-0.899,2.1l-0.9,2.1l-0.9,2l-1,1.9l-0.9,1.8l-0.899,1.7l-0.899,1.5l-1,1.3l-0.9,1.2l-0.9,1l-1,0.9l-0.9,0.6l-0.899,0.4l-0.899,0.2
		h-1l-0.9-0.2l-0.9-0.4l-0.9-0.6l-1-0.9l-0.899-1l-0.899-1.2l-1-1.3l-0.9-1.5l-0.9-1.7l-0.9-1.8l-1-1.9l-0.9-2l-0.9-2.1l-0.9-2.1
		l-1-2.2l-0.9-2.2"/>
</g>
<g id="g2485_8_">
	<path id="path2487_8_" fill="none" stroke="#010101" stroke-width="2" stroke-linecap="round" stroke-linejoin="round" d="
		M276.515,157.053l-0.9,2.2l-1,2.2l-0.9,2.1l-0.9,2.1l-0.899,2l-1,1.9l-0.899,1.8l-0.9,1.7l-0.9,1.5l-1,1.3l-0.9,1.2l-0.899,1
		l-1,0.9l-0.899,0.6l-0.9,0.4l-0.9,0.2h-1l-0.9-0.2l-0.899-0.4l-0.899-0.6l-1-0.9l-0.9-1l-0.9-1.2l-1-1.3l-0.9-1.5l-0.899-1.7
		l-0.899-1.8l-1-1.9l-0.9-2l-0.9-2.1l-0.9-2.1l-1-2.2l-0.899-2.2l-0.899-2.2l-1-2.2l-0.9-2.1l-0.9-2.1l-0.9-2l-1-1.9l-0.899-1.8
		l-0.899-1.7l-0.9-1.5l-1-1.3l-0.9-1.2l-0.9-1l-1-0.9l-0.899-0.6l-0.899-0.4l-0.9-0.2h-1l-0.9,0.2l-0.9,0.4l-0.899,0.6l-1,0.9
		l-0.899,1l-0.9,1.2l-1,1.3l-0.9,1.5l-0.9,1.7l-0.899,1.8l-1,1.9l-0.899,2l-0.9,2.1l-0.9,2.1l-1,2.2l-0.9,2.2l-0.899,2.2l-1,2.2
		l-0.899,2.1l-0.9,2.1l-0.9,2l-1,1.9l-0.9,1.8l-0.899,1.7l-0.899,1.5l-1,1.3l-0.9,1.2l-0.9,1l-1,0.9l-0.9,0.6l-0.899,0.4l-0.899,0.2
		h-1l-0.9-0.2l-0.9-0.4l-0.9-0.6l-1-0.9l-0.899-1l-0.899-1.2l-1-1.3l-0.9-1.5l-0.9-1.7l-0.9-1.8l-1-1.9l-0.9-2l-0.9-2.1l-0.9-2.1
		l-1-2.2l-0.9-2.2"/>
</g>
<g id="g2485_9_">
	<path id="path2487_9_" fill="none" stroke="#010101" stroke-width="2" stroke-linecap="round" stroke-linejoin="round" d="
		M276.514,157.054l0.9-2.2l1-2.2l0.9-2.1l0.9-2.1l0.9-2l1-1.9l0.9-1.8l0.9-1.7l0.9-1.5l1-1.3l0.9-1.2l0.9-1l1-0.9l0.9-0.6l0.9-0.4
		l0.9-0.2h1l0.9,0.2l0.9,0.4l0.9,0.6l1,0.9l0.9,1l0.9,1.2l1,1.3l0.9,1.5l0.9,1.7l0.9,1.8l1,1.9l0.9,2l0.899,2.1l0.899,2.1l1,2.2
		l0.9,2.2l0.9,2.2l1,2.2l0.9,2.1l0.899,2.1l0.899,2l1,1.9l0.9,1.8l0.9,1.7l0.9,1.5l1,1.3l0.899,1.2l0.899,1l1,0.9l0.9,0.6l0.9,0.4
		l0.9,0.2h1l0.899-0.2l0.899-0.4l0.9-0.6l1-0.9l0.9-1l0.9-1.2l1-1.3l0.898-1.5l0.9-1.7l0.9-1.8l1-1.9l0.9-2l0.9-2.1l0.898-2.1l1-2.2
		l0.9-2.2l0.9-2.2l1-2.2l0.9-2.1l0.9-2.1l0.898-2l1-1.9l0.9-1.8l0.9-1.7l0.9-1.5l1-1.3l0.9-1.2l0.898-1l1-0.9l0.9-0.6l0.9-0.4
		l0.9-0.2h1l0.9,0.2l0.898,0.4l0.9,0.6l1,0.9l0.9,1l0.9,1.2l1,1.3l0.9,1.5l0.898,1.7l0.9,1.8l1,1.9l0.9,2l0.9,2.1l0.9,2.1l1,2.2
		l0.898,2.2"/>
</g>
<g id="g2485_11_">
	<path id="path2487_11_" fill="none" stroke="#010101" stroke-width="2" stroke-linecap="round" stroke-linejoin="round" d="
		M368.314,157.054l0.9-2.2l1-2.2l0.899-2.1l0.9-2.1l0.9-2l1-1.9l0.899-1.8l0.9-1.7l0.899-1.5l1-1.3l0.9-1.2l0.9-1l1-0.9l0.899-0.6
		l0.9-0.4l0.899-0.2h1l0.9,0.2l0.9,0.4l0.899,0.6l1,0.9l0.9,1l0.899,1.2l1,1.3l0.9,1.5l0.9,1.7l0.899,1.8l1,1.9l0.9,2l0.899,2.1
		l0.9,2.1l1,2.2l0.9,2.2l0.899,2.2l1,2.2l0.9,2.1l0.899,2.1l0.9,2l1,1.9l0.9,1.8l0.899,1.7l0.9,1.5l1,1.3l0.899,1.2l0.9,1l1,0.9
		l0.9,0.6l0.899,0.4l0.9,0.2h1l0.899-0.2l0.9-0.4l0.9-0.6l1-0.9l0.899-1l0.9-1.2l1-1.3l0.899-1.5l0.9-1.7l0.9-1.8l1-1.9l0.899-2
		l0.9-2.1l0.899-2.1l1-2.2l0.9-2.2l0.9-2.2l1-2.2l0.899-2.1l0.9-2.1l0.899-2l1-1.9l0.9-1.8l0.9-1.7l0.899-1.5l1-1.3l0.9-1.2l0.899-1
		l1-0.9l0.9-0.6l0.9-0.4l0.899-0.2h1l0.9,0.2l0.899,0.4l0.9,0.6l1,0.9l0.9,1l0.899,1.2l1,1.3l0.9,1.5l0.899,1.7l0.9,1.8l1,1.9l0.9,2
		l0.899,2.1l0.9,2.1l1,2.2l0.899,2.2"/>
</g>
<g id="g2485_10_">
	<path id="path2487_10_" fill="none" stroke="#010101" stroke-width="2" stroke-linecap="round" stroke-linejoin="round" d="
		M551.915,157.053l-0.9,2.2l-1,2.2l-0.9,2.1l-0.9,2.1l-0.899,2l-1,1.9l-0.899,1.8l-0.9,1.7l-0.9,1.5l-1,1.3l-0.9,1.2l-0.899,1
		l-1,0.9l-0.899,0.6l-0.9,0.4l-0.9,0.2h-1l-0.9-0.2l-0.899-0.4l-0.899-0.6l-1-0.9l-0.9-1l-0.9-1.2l-1-1.3l-0.9-1.5l-0.899-1.7
		l-0.899-1.8l-1-1.9l-0.9-2l-0.9-2.1l-0.9-2.1l-1-2.2l-0.899-2.2l-0.899-2.2l-1-2.2l-0.9-2.1l-0.9-2.1l-0.9-2l-1-1.9l-0.899-1.8
		l-0.899-1.7l-0.9-1.5l-1-1.3l-0.9-1.2l-0.9-1l-1-0.9l-0.899-0.6l-0.899-0.4l-0.9-0.2h-1l-0.9,0.2l-0.9,0.4l-0.899,0.6l-1,0.9
		l-0.899,1l-0.9,1.2l-1,1.3l-0.9,1.5l-0.9,1.7l-0.899,1.8l-1,1.9l-0.899,2l-0.9,2.1l-0.9,2.1l-1,2.2l-0.9,2.2l-0.899,2.2l-1,2.2
		l-0.899,2.1l-0.9,2.1l-0.9,2l-1,1.9l-0.9,1.8l-0.899,1.7l-0.899,1.5l-1,1.3l-0.9,1.2l-0.9,1l-1,0.9l-0.9,0.6l-0.899,0.4l-0.899,0.2
		h-1l-0.9-0.2l-0.9-0.4l-0.9-0.6l-1-0.9l-0.899-1l-0.899-1.2l-1-1.3l-0.9-1.5l-0.9-1.7l-0.9-1.8l-1-1.9l-0.899-2l-0.899-2.1
		l-0.9-2.1l-1-2.2l-0.9-2.2"/>
</g>
<g id="g2485_13_">
	<path id="path2487_13_" fill="none" stroke="#010101" stroke-width="2" stroke-linecap="round" stroke-linejoin="round" d="
		M551.914,157.054l0.9-2.2l1-2.2l0.899-2.1l0.9-2.1l0.9-2l1-1.9l0.899-1.8l0.9-1.7l0.899-1.5l1-1.3l0.9-1.2l0.9-1l1-0.9l0.899-0.6
		l0.9-0.4l0.899-0.2h1l0.9,0.2l0.9,0.4l0.899,0.6l1,0.9l0.9,1l0.899,1.2l1,1.3l0.9,1.5l0.9,1.7l0.899,1.8l1,1.9l0.9,2l0.899,2.1
		l0.9,2.1l1,2.2l0.9,2.2l0.899,2.2l1,2.2l0.9,2.1l0.899,2.1l0.9,2l1,1.9l0.9,1.8l0.899,1.7l0.9,1.5l1,1.3l0.899,1.2l0.9,1l1,0.9
		l0.9,0.6l0.899,0.4l0.9,0.2h1l0.899-0.2l0.9-0.4l0.9-0.6l1-0.9l0.899-1l0.9-1.2l1-1.3l0.899-1.5l0.9-1.7l0.9-1.8l1-1.9l0.899-2
		l0.9-2.1l0.899-2.1l1-2.2l0.9-2.2l0.9-2.2l1-2.2l0.899-2.1l0.9-2.1l0.899-2l1-1.9l0.9-1.8l0.9-1.7l0.899-1.5l1-1.3l0.9-1.2l0.899-1
		l1-0.9l0.9-0.6l0.9-0.4l0.899-0.2h1l0.9,0.2l0.899,0.4l0.9,0.6l1,0.9l0.9,1l0.899,1.2l1,1.3l0.9,1.5l0.899,1.7l0.9,1.8l1,1.9l0.9,2
		l0.899,2.1l0.9,2.1l1,2.2l0.899,2.2"/>
</g>
<g id="g2485_12_">
	<path id="path2487_12_" fill="none" stroke="#010101" stroke-width="2" stroke-linecap="round" stroke-linejoin="round" d="
		M735.515,157.053l-0.9,2.2l-1,2.2l-0.9,2.1l-0.9,2.1l-0.899,2l-1,1.9l-0.899,1.8l-0.9,1.7l-0.9,1.5l-1,1.3l-0.9,1.2l-0.899,1
		l-1,0.9l-0.899,0.6l-0.9,0.4l-0.9,0.2h-1l-0.9-0.2l-0.899-0.4l-0.899-0.6l-1-0.9l-0.9-1l-0.9-1.2l-1-1.3l-0.9-1.5l-0.899-1.7
		l-0.899-1.8l-1-1.9l-0.9-2l-0.9-2.1l-0.9-2.1l-1-2.2l-0.899-2.2l-0.899-2.2l-1-2.2l-0.9-2.1l-0.9-2.1l-0.9-2l-1-1.9l-0.899-1.8
		l-0.899-1.7l-0.9-1.5l-1-1.3l-0.9-1.2l-0.9-1l-1-0.9l-0.899-0.6l-0.899-0.4l-0.9-0.2h-1l-0.9,0.2l-0.9,0.4l-0.899,0.6l-1,0.9
		l-0.899,1l-0.9,1.2l-1,1.3l-0.9,1.5l-0.9,1.7l-0.899,1.8l-1,1.9l-0.899,2l-0.9,2.1l-0.9,2.1l-1,2.2l-0.9,2.2l-0.899,2.2l-1,2.2
		l-0.899,2.1l-0.9,2.1l-0.9,2l-1,1.9l-0.9,1.8l-0.899,1.7l-0.899,1.5l-1,1.3l-0.9,1.2l-0.9,1l-1,0.9l-0.9,0.6l-0.899,0.4l-0.899,0.2
		h-1l-0.9-0.2l-0.9-0.4l-0.9-0.6l-1-0.9l-0.899-1l-0.899-1.2l-1-1.3l-0.9-1.5l-0.9-1.7l-0.9-1.8l-1-1.9l-0.899-2l-0.899-2.1
		l-0.9-2.1l-1-2.2l-0.9-2.2"/>
</g>
<text transform="matrix(1 0 0 1 1 122.5439)" font-family="'MyriadPro-Regular'" font-size="12">Phase Shift Keying (PSK) </text>
<g id="g2485_15_">
	<path id="path2487_15_" fill="none" stroke="#010101" stroke-width="2" stroke-linecap="round" stroke-linejoin="round" d="
		M1,248.744l0.9-2.2l1-2.2l0.9-2.1l0.9-2.1l0.9-2l1-1.9l0.9-1.8l0.9-1.7l0.9-1.5l1-1.3l0.9-1.2l0.9-1l1-0.9l0.9-0.6l0.9-0.4l0.9-0.2
		h1l0.9,0.2l0.9,0.4l0.9,0.6l1,0.9l0.9,1l0.9,1.2l1,1.3l0.9,1.5l0.9,1.7l0.9,1.8l1,1.9l0.9,2l0.9,2.1l0.9,2.1l1,2.2l0.9,2.2l0.9,2.2
		l1,2.2l0.9,2.1l0.9,2.1l0.9,2l1,1.9l0.9,1.8l0.9,1.7l0.9,1.5l1,1.3l0.9,1.2l0.9,1l1,0.9l0.9,0.6l0.9,0.4l0.9,0.2h1l0.9-0.2l0.9-0.4
		l0.9-0.6l1-0.9l0.9-1l0.9-1.2l1-1.3l0.9-1.5l0.9-1.7l0.9-1.8l1-1.9l0.9-2l0.9-2.1l0.9-2.1l1-2.2l0.9-2.2l0.9-2.2l1-2.2l0.9-2.1
		l0.9-2.1l0.9-2l1-1.9l0.9-1.8l0.9-1.7l0.9-1.5l1-1.3l0.9-1.2l0.9-1l1-0.9l0.9-0.6l0.9-0.4l0.9-0.2h1l0.9,0.2l0.9,0.4l0.9,0.6l1,0.9
		l0.9,1l0.899,1.2l1,1.3l0.9,1.5l0.899,1.7l0.9,1.8l1,1.9l0.9,2l0.899,2.1l0.9,2.1l1,2.2l0.899,2.2"/>
</g>
<g id="g2485_14_">
	<path id="path2487_14_" fill="none" stroke="#010101" stroke-width="2" stroke-linecap="round" stroke-linejoin="round" d="
		M184.6,248.743l-0.9,2.2l-1,2.2l-0.9,2.1l-0.9,2.1l-0.899,2l-1,1.9l-0.899,1.8l-0.9,1.7l-0.9,1.5l-1,1.3l-0.9,1.2l-0.899,1l-1,0.9
		l-0.899,0.6l-0.9,0.4l-0.9,0.2h-1l-0.9-0.2l-0.899-0.4l-0.899-0.6l-1-0.9l-0.9-1l-0.9-1.2l-1-1.3l-0.9-1.5l-0.899-1.7l-0.899-1.8
		l-1-1.9l-0.9-2l-0.9-2.1l-0.9-2.1l-1-2.2l-0.899-2.2l-0.899-2.2l-1-2.2l-0.9-2.1l-0.9-2.1l-0.9-2l-1-1.9l-0.899-1.8l-0.899-1.7
		l-0.9-1.5l-1-1.3l-0.9-1.2l-0.9-1l-1-0.9l-0.899-0.6l-0.899-0.4l-0.9-0.2h-1l-0.9,0.2l-0.9,0.4l-0.899,0.6l-1,0.9l-0.899,1
		l-0.9,1.2l-1,1.3l-0.9,1.5l-0.9,1.7l-0.899,1.8l-1,1.9l-0.899,2l-0.9,2.1l-0.9,2.1l-1,2.2l-0.9,2.2l-0.899,2.2l-1,2.2l-0.899,2.1
		l-0.9,2.1l-0.9,2l-1,1.9l-0.9,1.8l-0.899,1.7l-0.899,1.5l-1,1.3l-0.9,1.2l-0.9,1l-1,0.9l-0.9,0.6l-0.899,0.4l-0.899,0.2h-1
		l-0.9-0.2l-0.9-0.4l-0.9-0.6l-1-0.9l-0.899-1l-0.899-1.2l-1-1.3l-0.9-1.5l-0.9-1.7l-0.9-1.8l-1-1.9l-0.899-2l-0.899-2.1l-0.9-2.1
		l-1-2.2l-0.9-2.2"/>
</g>
<g id="g2485_17_">
	<path id="path2487_17_" fill="none" stroke="#010101" stroke-width="2" stroke-linecap="round" stroke-linejoin="round" d="
		M184.713,248.745l0.45-2.2l0.5-2.2l0.45-2.1l0.45-2.1l0.45-2l0.5-1.9l0.45-1.8l0.45-1.7l0.45-1.5l0.5-1.3l0.45-1.2l0.45-1l0.5-0.9
		l0.45-0.6l0.45-0.4l0.45-0.2h0.5l0.45,0.2l0.45,0.4l0.45,0.6l0.5,0.9l0.45,1l0.45,1.2l0.5,1.3l0.45,1.5l0.45,1.7l0.45,1.8l0.5,1.9
		l0.45,2l0.45,2.1l0.45,2.1l0.5,2.2l0.45,2.2l0.45,2.2l0.5,2.2l0.45,2.1l0.45,2.1l0.45,2l0.5,1.9l0.45,1.8l0.45,1.7l0.45,1.5
		l0.5,1.3l0.45,1.2l0.45,1l0.5,0.9l0.45,0.6l0.45,0.4l0.45,0.2h0.5l0.45-0.2l0.45-0.4l0.45-0.6l0.5-0.9l0.45-1l0.45-1.2l0.5-1.3
		l0.45-1.5l0.45-1.7l0.45-1.8l0.5-1.9l0.45-2l0.45-2.1l0.45-2.1l0.5-2.2l0.45-2.2l0.45-2.2l0.5-2.2l0.45-2.1l0.45-2.1l0.45-2
		l0.5-1.9l0.45-1.8l0.45-1.7l0.45-1.5l0.5-1.3l0.45-1.2l0.45-1l0.5-0.9l0.45-0.6l0.45-0.4l0.45-0.2h0.5l0.45,0.2l0.45,0.4l0.45,0.6
		l0.5,0.9l0.45,1l0.449,1.2l0.5,1.3l0.45,1.5l0.45,1.7l0.45,1.8l0.5,1.9l0.45,2l0.449,2.1l0.45,2.1l0.5,2.2l0.45,2.2"/>
</g>
<g id="g2485_16_">
	<path id="path2487_16_" fill="none" stroke="#010101" stroke-width="2" stroke-linecap="round" stroke-linejoin="round" d="
		M276.514,248.744l-0.45,2.2l-0.5,2.2l-0.45,2.1l-0.45,2.1l-0.45,2l-0.5,1.9l-0.449,1.8l-0.45,1.7l-0.45,1.5l-0.5,1.3l-0.45,1.2
		l-0.45,1l-0.5,0.9l-0.449,0.6l-0.45,0.4l-0.45,0.2h-0.5l-0.45-0.2l-0.45-0.4l-0.449-0.6l-0.5-0.9l-0.45-1l-0.45-1.2l-0.5-1.3
		l-0.45-1.5l-0.45-1.7l-0.449-1.8l-0.5-1.9l-0.45-2l-0.45-2.1l-0.45-2.1l-0.5-2.2l-0.45-2.2l-0.449-2.2l-0.5-2.2l-0.45-2.1
		l-0.45-2.1l-0.45-2l-0.5-1.9l-0.45-1.8l-0.449-1.7l-0.45-1.5l-0.5-1.3l-0.45-1.2l-0.45-1l-0.5-0.9l-0.45-0.6l-0.449-0.4l-0.45-0.2
		h-0.5l-0.45,0.2l-0.45,0.4l-0.45,0.6l-0.5,0.9l-0.449,1l-0.45,1.2l-0.5,1.3l-0.45,1.5l-0.45,1.7l-0.45,1.8l-0.5,1.9l-0.449,2
		l-0.45,2.1l-0.45,2.1l-0.5,2.2l-0.45,2.2l-0.45,2.2l-0.5,2.2l-0.449,2.1l-0.45,2.1l-0.45,2l-0.5,1.9l-0.45,1.8l-0.45,1.7
		l-0.449,1.5l-0.5,1.3l-0.45,1.2l-0.45,1l-0.5,0.9l-0.45,0.6l-0.45,0.4l-0.449,0.2h-0.5l-0.45-0.2l-0.45-0.4l-0.45-0.6l-0.5-0.9
		l-0.45-1l-0.449-1.2l-0.5-1.3l-0.45-1.5l-0.45-1.7l-0.45-1.8l-0.5-1.9l-0.45-2l-0.449-2.1l-0.45-2.1l-0.5-2.2l-0.45-2.2"/>
</g>
<g id="g2485_19_">
	<path id="path2487_19_" fill="none" stroke="#010101" stroke-width="2" stroke-linecap="round" stroke-linejoin="round" d="
		M276.514,248.744l0.45-2.2l0.5-2.2l0.45-2.1l0.45-2.1l0.45-2l0.5-1.9l0.45-1.8l0.45-1.7l0.45-1.5l0.5-1.3l0.45-1.2l0.45-1l0.5-0.9
		l0.45-0.6l0.45-0.4l0.45-0.2h0.5l0.45,0.2l0.45,0.4l0.45,0.6l0.5,0.9l0.45,1l0.45,1.2l0.5,1.3l0.45,1.5l0.45,1.7l0.45,1.8l0.5,1.9
		l0.45,2l0.45,2.1l0.45,2.1l0.5,2.2l0.45,2.2l0.45,2.2l0.5,2.2l0.45,2.1l0.45,2.1l0.45,2l0.5,1.9l0.45,1.8l0.45,1.7l0.45,1.5
		l0.5,1.3l0.45,1.2l0.45,1l0.5,0.9l0.45,0.6l0.45,0.4l0.45,0.2h0.5l0.45-0.2l0.45-0.4l0.449-0.6l0.5-0.9l0.45-1l0.45-1.2l0.5-1.3
		l0.45-1.5l0.45-1.7l0.449-1.8l0.5-1.9l0.45-2l0.45-2.1l0.45-2.1l0.5-2.2l0.45-2.2l0.449-2.2l0.5-2.2l0.45-2.1l0.45-2.1l0.45-2
		l0.5-1.9l0.45-1.8l0.449-1.7l0.45-1.5l0.5-1.3l0.45-1.2l0.45-1l0.5-0.9l0.45-0.6l0.449-0.4l0.45-0.2h0.5l0.45,0.2l0.45,0.4
		l0.45,0.6l0.5,0.9l0.45,1l0.449,1.2l0.5,1.3l0.45,1.5l0.45,1.7l0.45,1.8l0.5,1.9l0.45,2l0.449,2.1l0.45,2.1l0.5,2.2l0.45,2.2"/>
</g>
<g id="g2485_18_">
	<path id="path2487_18_" fill="none" stroke="#010101" stroke-width="2" stroke-linecap="round" stroke-linejoin="round" d="
		M368.314,248.743l-0.45,2.2l-0.5,2.2l-0.45,2.1l-0.45,2.1l-0.45,2l-0.5,1.9l-0.449,1.8l-0.45,1.7l-0.45,1.5l-0.5,1.3l-0.45,1.2
		l-0.45,1l-0.5,0.9l-0.449,0.6l-0.45,0.4l-0.45,0.2h-0.5l-0.45-0.2l-0.45-0.4l-0.449-0.6l-0.5-0.9l-0.45-1l-0.45-1.2l-0.5-1.3
		l-0.45-1.5l-0.45-1.7l-0.449-1.8l-0.5-1.9l-0.45-2l-0.45-2.1l-0.45-2.1l-0.5-2.2l-0.45-2.2l-0.449-2.2l-0.5-2.2l-0.45-2.1
		l-0.45-2.1l-0.45-2l-0.5-1.9l-0.45-1.8l-0.449-1.7l-0.45-1.5l-0.5-1.3l-0.45-1.2l-0.45-1l-0.5-0.9l-0.45-0.6l-0.449-0.4l-0.45-0.2
		h-0.5l-0.45,0.2l-0.45,0.4l-0.45,0.6l-0.5,0.9l-0.449,1l-0.45,1.2l-0.5,1.3l-0.45,1.5l-0.45,1.7l-0.45,1.8l-0.5,1.9l-0.449,2
		l-0.45,2.1l-0.45,2.1l-0.5,2.2l-0.45,2.2l-0.45,2.2l-0.5,2.2l-0.449,2.1l-0.45,2.1l-0.45,2l-0.5,1.9l-0.45,1.8l-0.45,1.7
		l-0.449,1.5l-0.5,1.3l-0.45,1.2l-0.45,1l-0.5,0.9l-0.45,0.6l-0.45,0.4l-0.449,0.2h-0.5l-0.45-0.2l-0.45-0.4l-0.45-0.6l-0.5-0.9
		l-0.45-1l-0.449-1.2l-0.5-1.3l-0.45-1.5l-0.45-1.7l-0.45-1.8l-0.5-1.9l-0.45-2l-0.449-2.1l-0.45-2.1l-0.5-2.2l-0.45-2.2"/>
</g>
<g id="g2485_21_">
	<path id="path2487_21_" fill="none" stroke="#010101" stroke-width="2" stroke-linecap="round" stroke-linejoin="round" d="
		M368.313,248.744l0.9-2.2l1-2.2l0.9-2.1l0.9-2.1l0.899-2l1-1.9l0.899-1.8l0.9-1.7l0.9-1.5l1-1.3l0.9-1.2l0.899-1l1-0.9l0.899-0.6
		l0.9-0.4l0.9-0.2h1l0.9,0.2l0.899,0.4l0.899,0.6l1,0.9l0.9,1l0.9,1.2l1,1.3l0.9,1.5l0.899,1.7l0.899,1.8l1,1.9l0.9,2l0.9,2.1
		l0.9,2.1l1,2.2l0.899,2.2l0.899,2.2l1,2.2l0.9,2.1l0.9,2.1l0.9,2l1,1.9l0.899,1.8l0.899,1.7l0.9,1.5l1,1.3l0.9,1.2l0.9,1l1,0.9
		l0.899,0.6l0.899,0.4l0.9,0.2h1l0.9-0.2l0.9-0.4l0.899-0.6l1-0.9l0.899-1l0.9-1.2l1-1.3l0.9-1.5l0.9-1.7l0.899-1.8l1-1.9l0.899-2
		l0.9-2.1l0.9-2.1l1-2.2l0.9-2.2l0.899-2.2l1-2.2l0.899-2.1l0.9-2.1l0.9-2l1-1.9l0.9-1.8l0.899-1.7l0.899-1.5l1-1.3l0.9-1.2l0.9-1
		l1-0.9l0.9-0.6l0.899-0.4l0.899-0.2h1l0.9,0.2l0.9,0.4l0.9,0.6l1,0.9l0.9,1l0.898,1.2l1,1.3l0.9,1.5l0.9,1.7l0.9,1.8l1,1.9l0.9,2
		l0.898,2.1l0.9,2.1l1,2.2l0.9,2.2"/>
</g>
<g id="g2485_20_">
	<path id="path2487_20_" fill="none" stroke="#010101" stroke-width="2" stroke-linecap="round" stroke-linejoin="round" d="
		M551.915,248.743l-0.9,2.2l-1,2.2l-0.9,2.1l-0.9,2.1l-0.9,2l-1,1.9l-0.898,1.8l-0.9,1.7l-0.9,1.5l-1,1.3l-0.9,1.2l-0.9,1l-1,0.9
		l-0.898,0.6l-0.9,0.4l-0.9,0.2h-1l-0.9-0.2l-0.9-0.4l-0.898-0.6l-1-0.9l-0.9-1l-0.9-1.2l-1-1.3l-0.9-1.5l-0.9-1.7l-0.898-1.8
		l-1-1.9l-0.9-2l-0.9-2.1l-0.9-2.1l-1-2.2l-0.9-2.2l-0.898-2.2l-1-2.2l-0.9-2.1l-0.9-2.1l-0.9-2l-1-1.9l-0.9-1.8l-0.898-1.7
		l-0.9-1.5l-1-1.3l-0.9-1.2l-0.9-1l-1-0.9l-0.9-0.6l-0.898-0.4l-0.9-0.2h-1l-0.9,0.2l-0.9,0.4l-0.9,0.6l-1,0.9l-0.898,1l-0.9,1.2
		l-1,1.3l-0.9,1.5l-0.9,1.7l-0.9,1.8l-1,1.9l-0.898,2l-0.9,2.1l-0.9,2.1l-1,2.2l-0.9,2.2l-0.9,2.2l-1,2.2l-0.898,2.1l-0.9,2.1
		l-0.9,2l-1,1.9l-0.9,1.8l-0.9,1.7l-0.898,1.5l-1,1.3l-0.9,1.2l-0.9,1l-1,0.9l-0.9,0.6l-0.9,0.4l-0.898,0.2h-1l-0.9-0.2l-0.9-0.4
		l-0.9-0.6l-1-0.9l-0.9-1l-0.898-1.2l-1-1.3l-0.9-1.5l-0.9-1.7l-0.9-1.8l-1-1.9l-0.9-2l-0.898-2.1l-0.9-2.1l-1-2.2l-0.9-2.2"/>
</g>
<g id="g2485_23_">
	<path id="path2487_23_" fill="none" stroke="#010101" stroke-width="2" stroke-linecap="round" stroke-linejoin="round" d="
		M551.914,248.745l0.9-2.2l1-2.2l0.9-2.1l0.9-2.1l0.899-2l1-1.9l0.899-1.8l0.9-1.7l0.9-1.5l1-1.3l0.9-1.2l0.899-1l1-0.9l0.899-0.6
		l0.9-0.4l0.9-0.2h1l0.9,0.2l0.899,0.4l0.899,0.6l1,0.9l0.9,1l0.9,1.2l1,1.3l0.9,1.5l0.899,1.7l0.899,1.8l1,1.9l0.9,2l0.9,2.1
		l0.9,2.1l1,2.2l0.899,2.2l0.899,2.2l1,2.2l0.9,2.1l0.9,2.1l0.9,2l1,1.9l0.899,1.8l0.899,1.7l0.9,1.5l1,1.3l0.9,1.2l0.9,1l1,0.9
		l0.899,0.6l0.899,0.4l0.9,0.2h1l0.9-0.2l0.9-0.4l0.899-0.6l1-0.9l0.899-1l0.9-1.2l1-1.3l0.9-1.5l0.9-1.7l0.899-1.8l1-1.9l0.899-2
		l0.9-2.1l0.9-2.1l1-2.2l0.9-2.2l0.899-2.2l1-2.2l0.899-2.1l0.9-2.1l0.9-2l1-1.9l0.9-1.8l0.899-1.7l0.899-1.5l1-1.3l0.9-1.2l0.9-1
		l1-0.9l0.9-0.6l0.899-0.4l0.899-0.2h1l0.9,0.2l0.9,0.4l0.9,0.6l1,0.9l0.9,1l0.898,1.2l1,1.3l0.9,1.5l0.9,1.7l0.9,1.8l1,1.9l0.9,2
		l0.898,2.1l0.9,2.1l1,2.2l0.9,2.2"/>
</g>
<g id="g2485_22_">
	<path id="path2487_22_" fill="none" stroke="#010101" stroke-width="2" stroke-linecap="round" stroke-linejoin="round" d="
		M735.516,248.744l-0.9,2.2l-1,2.2l-0.9,2.1l-0.9,2.1l-0.9,2l-1,1.9l-0.898,1.8l-0.9,1.7l-0.9,1.5l-1,1.3l-0.9,1.2l-0.9,1l-1,0.9
		l-0.898,0.6l-0.9,0.4l-0.9,0.2h-1l-0.9-0.2l-0.9-0.4l-0.898-0.6l-1-0.9l-0.9-1l-0.9-1.2l-1-1.3l-0.9-1.5l-0.9-1.7l-0.898-1.8
		l-1-1.9l-0.9-2l-0.9-2.1l-0.9-2.1l-1-2.2l-0.9-2.2l-0.898-2.2l-1-2.2l-0.9-2.1l-0.9-2.1l-0.9-2l-1-1.9l-0.9-1.8l-0.898-1.7
		l-0.9-1.5l-1-1.3l-0.9-1.2l-0.9-1l-1-0.9l-0.9-0.6l-0.898-0.4l-0.9-0.2h-1l-0.9,0.2l-0.9,0.4l-0.9,0.6l-1,0.9l-0.898,1l-0.9,1.2
		l-1,1.3l-0.9,1.5l-0.9,1.7l-0.9,1.8l-1,1.9l-0.898,2l-0.9,2.1l-0.9,2.1l-1,2.2l-0.9,2.2l-0.9,2.2l-1,2.2l-0.898,2.1l-0.9,2.1
		l-0.9,2l-1,1.9l-0.9,1.8l-0.9,1.7l-0.898,1.5l-1,1.3l-0.9,1.2l-0.9,1l-1,0.9l-0.9,0.6l-0.9,0.4l-0.898,0.2h-1l-0.9-0.2l-0.9-0.4
		l-0.9-0.6l-1-0.9l-0.9-1l-0.898-1.2l-1-1.3l-0.9-1.5l-0.9-1.7l-0.9-1.8l-1-1.9l-0.9-2l-0.898-2.1l-0.9-2.1l-1-2.2l-0.9-2.2"/>
</g>
<text transform="matrix(1 0 0 1 1 217.0439)" font-family="'MyriadPro-Regular'" font-size="12">Frequency Shift Keying (FSK) </text>
<line fill="none" x1="184.714" y1="36.616" x2="184.6" y2="311.473"/>
<line fill="none" x1="217.458" y1="301.188" x2="217.343" y2="576.048"/>
<line fill="none" x1="184.714" y1="36.616" x2="184.6" y2="311.473"/>
<line fill="none" x1="184.6" y1="311.473" x2="184.485" y2="586.333"/>
<path fill="none" stroke="#010101" stroke-miterlimit="10" d="M184.629,314.106"/>
<path fill="none" stroke="#010101" stroke-miterlimit="10" d="M184.744,39.247"/>
<line fill="none" stroke="#010101" stroke-miterlimit="10" stroke-dasharray="10,10" x1="184.714" y1="36.616" x2="184.629" y2="314.106"/>
<line fill="none" stroke="#010101" stroke-miterlimit="10" stroke-dasharray="10,10" x1="368.357" y1="36.616" x2="368.272" y2="314.106"/>
<line fill="none" stroke="#010101" stroke-miterlimit="10" stroke-dasharray="10,10" x1="552.07" y1="35.3" x2="551.985" y2="312.79"/>
<text transform="matrix(1 0 0 1 92.7993 301.1875)" font-family="'MyriadPro-Regular'" font-size="12">1</text>
<text transform="matrix(1 0 0 1 460.1162 301.1875)" font-family="'MyriadPro-Regular'" font-size="12">1</text>
<text transform="matrix(1 0 0 1 643.7158 301.1875)" font-family="'MyriadPro-Regular'" font-size="12">1</text>
<text transform="matrix(1 0 0 1 276.5142 301.1875)" font-family="'MyriadPro-Regular'" font-size="12">0</text>
</svg>
