<?xml version="1.0" encoding="utf-8"?>
<!-- Generator: Adobe Illustrator 16.0.1, SVG Export Plug-In . SVG Version: 6.00 Build 0)  -->
<!DOCTYPE svg PUBLIC "-//W3C//DTD SVG 1.1//EN" "http://www.w3.org/Graphics/SVG/1.1/DTD/svg11.dtd">
<svg version="1.1" id="Layer_1" xmlns="http://www.w3.org/2000/svg" xmlns:xlink="http://www.w3.org/1999/xlink" x="0px" y="0px"
	 width="370.43px" height="198.387px" viewBox="0 0 370.43 198.387" enable-background="new 0 0 370.43 198.387"
	 xml:space="preserve">
<rect x="10.397" y="30.753" fill="#FFFFFF" stroke="#000000" stroke-miterlimit="10" width="44.84" height="71.45"/>
<text transform="matrix(1 0 0 1 27.5439 28.7534)" font-family="'MyriadPro-Regular'" font-size="12">M</text>
<line stroke="#000000" stroke-miterlimit="10" x1="10.404" y1="38.87" x2="55.236" y2="38.87"/>
<line fill="none" stroke="#000000" stroke-miterlimit="10" x1="10.4" y1="47.537" x2="55.238" y2="47.537"/>
<line fill="none" stroke="#000000" stroke-miterlimit="10" x1="10.401" y1="65.454" x2="55.239" y2="65.454"/>
<line fill="none" stroke="#000000" stroke-miterlimit="10" x1="10.397" y1="56.204" x2="55.235" y2="56.204"/>
<line fill="none" stroke="#000000" stroke-miterlimit="10" x1="10.397" y1="75.454" x2="55.234" y2="75.454"/>
<line fill="none" stroke="#000000" stroke-miterlimit="10" x1="10.397" y1="83.954" x2="55.235" y2="83.954"/>
<line fill="none" stroke="#000000" stroke-miterlimit="10" x1="10.401" y1="92.954" x2="55.239" y2="92.954"/>
<rect x="10.397" y="120.454" fill="#FFFFFF" stroke="#000000" stroke-miterlimit="10" width="44.84" height="71.45"/>
<text transform="matrix(1 0 0 1 22.2939 117.4536)" font-family="'MyriadPro-Regular'" font-size="12">V_In</text>
<line stroke="#000000" stroke-miterlimit="10" x1="10.404" y1="128.57" x2="55.236" y2="128.57"/>
<line fill="none" stroke="#000000" stroke-miterlimit="10" x1="10.4" y1="137.237" x2="55.239" y2="137.237"/>
<line fill="none" stroke="#000000" stroke-miterlimit="10" x1="10.401" y1="155.154" x2="55.239" y2="155.154"/>
<line fill="none" stroke="#000000" stroke-miterlimit="10" x1="10.397" y1="145.904" x2="55.235" y2="145.904"/>
<line fill="none" stroke="#000000" stroke-miterlimit="10" x1="10.397" y1="165.154" x2="55.234" y2="165.154"/>
<line fill="none" stroke="#000000" stroke-miterlimit="10" x1="10.397" y1="173.654" x2="55.235" y2="173.654"/>
<line fill="none" stroke="#000000" stroke-miterlimit="10" x1="10.401" y1="182.654" x2="55.239" y2="182.654"/>
<g>
	<g>
		<g>
			<polygon points="55.006,65.774 113.104,107.94 111.405,110.281 117.947,110.965 115.269,104.958 113.57,107.298 55.472,65.132 
							"/>
		</g>
	</g>
</g>
<g>
	<line fill="none" stroke="#000000" stroke-miterlimit="10" x1="99.311" y1="94.972" x2="99.311" y2="94.972"/>
</g>
<g>
	<g>
		<g>
			<polygon points="55.432,155.5 113.164,123.323 114.572,125.849 117.947,120.204 111.37,120.104 112.778,122.63 55.045,154.807 
							"/>
		</g>
	</g>
</g>
<g>
	<rect x="117.947" y="102.204" fill="#FFFFFF" stroke="#000000" stroke-miterlimit="10" width="81.292" height="26.367"/>
	<text transform="matrix(1 0 0 1 154.9888 124.2036)" font-family="'MyriadPro-Regular'" font-size="18">*</text>
</g>
<g>
	<g>
		<g>
			<path d="M235.239,110.569h-34.417h-1.076h-0.269h-0.134h-0.067h-0.034c-0.004,1.584,0.008,0.439,0.012,0.793h0.017h0.538h2.151
				h4.302h8.604h14.677v2.892l5.696-3.289l-5.696-3.289v2.892h-14.677h-8.604h-4.302h-2.151h-0.538h-0.017
				c-0.003,0.354-0.016-0.792-0.012,0.794h0.034h0.067h0.134h0.269h1.076h34.417V110.569z"/>
		</g>
	</g>
</g>
<g>
	<rect x="235.239" y="102.36" fill="#FFFFFF" stroke="#000000" stroke-miterlimit="10" width="26.75" height="25.21"/>
	<text transform="matrix(1 0 0 1 243.7388 119.9536)" font-family="'MyriadPro-Regular'" font-size="18">+</text>
</g>
<line fill="none" stroke="#000000" stroke-miterlimit="10" x1="261.989" y1="115.387" x2="280.239" y2="115.387"/>
<line stroke="#000000" stroke-miterlimit="10" x1="280.239" y1="147.204" x2="217.239" y2="147.204"/>
<line fill="none" stroke="#000000" stroke-miterlimit="10" x1="280.239" y1="115.387" x2="280.239" y2="147.204"/>
<line fill="none" stroke="#000000" stroke-miterlimit="10" x1="217.239" y1="147.204" x2="217.239" y2="120.454"/>
<g>
	<g>
		<g>
			<polygon points="217.239,120.6 229.542,120.6 229.542,123.492 235.239,120.204 229.542,116.915 229.542,119.807 217.239,119.807 
							"/>
		</g>
	</g>
</g>
<rect x="312.897" y="80.162" fill="#FFFFFF" stroke="#000000" stroke-miterlimit="10" width="44.841" height="71.45"/>
<text transform="matrix(1 0 0 1 319.7935 77.1621)" font-family="'MyriadPro-Regular'" font-size="12">V_Out</text>
<line stroke="#000000" stroke-miterlimit="10" x1="312.904" y1="88.279" x2="357.736" y2="88.279"/>
<line fill="none" stroke="#000000" stroke-miterlimit="10" x1="312.901" y1="96.946" x2="357.739" y2="96.946"/>
<line fill="none" stroke="#000000" stroke-miterlimit="10" x1="312.901" y1="114.862" x2="357.739" y2="114.862"/>
<line fill="none" stroke="#000000" stroke-miterlimit="10" x1="312.897" y1="105.612" x2="357.735" y2="105.612"/>
<line fill="none" stroke="#000000" stroke-miterlimit="10" x1="312.897" y1="124.862" x2="357.734" y2="124.862"/>
<line fill="none" stroke="#000000" stroke-miterlimit="10" x1="312.897" y1="133.362" x2="357.735" y2="133.362"/>
<line fill="none" stroke="#000000" stroke-miterlimit="10" x1="312.901" y1="142.362" x2="357.739" y2="142.362"/>
<g>
	<g>
		<g>
			<polygon points="280.239,115.784 306.792,115.784 306.792,118.676 312.489,115.387 306.792,112.099 306.792,114.99 
				280.239,114.99 			"/>
		</g>
	</g>
</g>
<rect x="94.489" y="56.204" fill="none" stroke="#000000" stroke-miterlimit="10" width="193.875" height="117.45"/>
<g>
	<g>
		<g>
			<path d="M220.626,56.139c-1.134-9.438-2.182-18.897-3.753-28.295c-0.4-2.348-0.835-4.692-1.375-7.021
				c-0.537-2.326-1.127-4.654-2.192-6.874c-0.115-0.282-0.333-0.537-0.496-0.806c-0.173-0.273-0.354-0.531-0.558-0.74l-1.188-1.342
				c-0.81-0.877-1.658-1.773-2.696-2.462c-1.038-0.678-2.099-1.185-3.126-1.777l-0.771-0.439l-0.385-0.22
				c-0.143-0.089-0.293-0.157-0.448-0.219c-0.625-0.23-1.204-0.347-1.8-0.462c-2.37-0.439-4.759-0.655-7.162-0.684
				c-2.396-0.02-4.831,0.136-7.178,0.89c-0.588,0.218-1.152,0.446-1.679,0.684c-0.539,0.242-1.098,0.453-1.644,0.722
				c-1.112,0.49-2.15,1.187-3.082,1.967c-0.93,0.792-1.752,1.679-2.54,2.589l-1.135,1.399c-0.369,0.476-0.687,1.004-1.032,1.504
				c-2.419,4.182-4.077,8.67-5.637,13.171c-1.534,4.514-2.875,9.089-4.019,13.717c-0.576,2.283-1.071,4.588-1.506,6.907
				l-0.358,2.114l-2.858-0.445c0.751,2.113,1.652,4.261,2.684,6.169c1.167-1.886,2.427-3.526,3.815-5.158l-2.857-0.444l0.355-2.092
				c0.431-2.298,0.922-4.589,1.496-6.86c1.137-4.603,2.473-9.161,3.999-13.65c1.546-4.47,3.214-8.955,5.562-13.012
				c0.331-0.477,0.626-0.972,0.984-1.435l1.111-1.37c0.767-0.887,1.565-1.746,2.447-2.497c0.889-0.742,1.841-1.386,2.908-1.855
				c0.52-0.258,1.075-0.467,1.62-0.712c0.557-0.252,1.095-0.466,1.622-0.662c2.188-0.706,4.569-0.87,6.913-0.848
				c2.35,0.027,4.715,0.242,7.019,0.669c0.569,0.106,1.16,0.238,1.649,0.416c0.122,0.047,0.241,0.104,0.351,0.172l0.389,0.222
				l0.778,0.443c1.032,0.593,2.121,1.12,3.073,1.745c0.949,0.627,1.752,1.471,2.551,2.336l1.175,1.329
				c0.212,0.219,0.368,0.449,0.512,0.681c0.142,0.239,0.327,0.438,0.437,0.709c0.996,2.072,1.598,4.39,2.124,6.688
				c0.534,2.304,0.968,4.636,1.366,6.975c1.565,9.363,2.613,18.816,3.748,28.257L220.626,56.139z"/>
		</g>
	</g>
</g>
</svg>
