<?xml version="1.0" encoding="utf-8"?>
<!-- Generator: Adobe Illustrator 16.0.1, SVG Export Plug-In . SVG Version: 6.00 Build 0)  -->
<!DOCTYPE svg PUBLIC "-//W3C//DTD SVG 1.1//EN" "http://www.w3.org/Graphics/SVG/1.1/DTD/svg11.dtd">
<svg version="1.1"
	 id="svg1333" sodipodi:version="0.32" sodipodi:docbase="C:\Documents and Settings\Matt\My Documents\PhD\Images\Modulation schemes\Constellations" xmlns:svg="http://www.w3.org/2000/svg" xmlns:rdf="http://www.w3.org/1999/02/22-rdf-syntax-ns#" xmlns:inkscape="http://www.inkscape.org/namespaces/inkscape" xmlns:cc="http://web.resource.org/cc/" xmlns:dc="http://purl.org/dc/elements/1.1/" xmlns:sodipodi="http://inkscape.sourceforge.net/DTD/sodipodi-0.dtd" sodipodi:docname="BPSKSVG.svg" inkscape:version="0.43"
	 xmlns="http://www.w3.org/2000/svg" xmlns:xlink="http://www.w3.org/1999/xlink" x="0px" y="0px" width="622.9px"
	 height="643.879px" viewBox="0 0 622.9 643.879" enable-background="new 0 0 622.9 643.879" xml:space="preserve">
<sodipodi:namedview  gridempspacing="5" gridspacingx="5px" showgrid="true" gridspacingy="5px" inkscape:cy="321.94021" inkscape:zoom="1.2409137" inkscape:cx="313.77055" borderopacity="1.0" gridtolerance="1px" pagecolor="#ffffff" bordercolor="#666666" id="base" inkscape:grid-points="true" inkscape:pageopacity="0.0" inkscape:window-height="966" inkscape:grid-bbox="true" inkscape:document-units="px" inkscape:window-width="1400" inkscape:pageshadow="2" inkscape:window-x="-4" inkscape:current-layer="layer1" inkscape:window-y="-4">
	</sodipodi:namedview>
<g id="path1344">
	<g>
		<path fill="none" stroke="#000000" stroke-width="3" d="M583.137,610.959c-580.926,0-580.926,0-580.926,0"/>
		<g>
			<polygon points="574.715,599.85 579.435,610.959 574.715,622.068 601.05,610.959 			"/>
		</g>
	</g>
</g>
<g id="path3965">
	<g>
		<path fill="none" stroke="#000000" stroke-width="3" d="M39.432,59.651c0,580.927,0,580.927,0,580.927"/>
		<g>
			<polygon points="28.323,68.074 39.432,63.354 50.542,68.074 39.432,41.739 			"/>
		</g>
	</g>
</g>
<text transform="matrix(1 0 0 1 32.2705 33.9697)" font-family="'ArialMT'" font-size="20">Q</text>
<text transform="matrix(1 0 0 1 607.6309 613.3271)" font-family="'Verdana'" font-size="20">I</text>
<g>
	<g>
		<line fill="none" stroke="#000000" stroke-width="3" x1="39.432" y1="613.327" x2="317.306" y2="334.622"/>
		<g>
			<polygon points="319.224,348.433 314.688,337.246 303.489,332.745 329.95,321.939 			"/>
		</g>
	</g>
</g>
<path fill="none" stroke="#000000" d="M72.968,208.292"/>
<path fill="none" stroke="#000000" d="M52.95,175.44"/>
<g id="path3156" sodipodi:start="0" sodipodi:rx="51.490383" sodipodi:end="0.58835027" sodipodi:ry="52.307693" sodipodi:open="true" sodipodi:cy="181.44231" sodipodi:cx="166.73077" sodipodi:type="arc">
	<g>
		<path fill="none" stroke="#0A0707" stroke-width="2.713" stroke-linecap="round" d="M81.626,610.959
			c0-9.292-2.437-18.396-7.033-26.389"/>
		<g>
			<polygon fill="#0A0707" points="81.307,586.822 74.989,585.268 73.438,591.587 71.416,588.246 72.968,581.93 79.284,583.481 			
				"/>
		</g>
	</g>
</g>
<path fill="none" stroke="#000000" d="M465.95,612.959"/>
<path fill="none" stroke="#000000" d="M583.95,410.72"/>
<line fill="none" stroke="#000000" x1="39.432" y1="334.518" x2="39.432" y2="355.798"/>
<text transform="matrix(1 0 0 1 83.9502 600.4443)" font-family="'MyriadPro-Regular'" font-size="18">1</text>
<g>
	<g>
		<line fill="none" stroke="#000000" stroke-width="3" x1="39.433" y1="613.327" x2="249.141" y2="180.556"/>
		<g>
			<polygon points="255.464,192.983 247.524,183.891 235.469,183.294 256.95,164.439 			"/>
		</g>
	</g>
</g>
<g id="path3156_1_" sodipodi:start="0" sodipodi:rx="51.490383" sodipodi:end="0.58835027" sodipodi:ry="52.307693" sodipodi:open="true" sodipodi:cy="181.44231" sodipodi:cx="166.73077" sodipodi:type="arc">
	<g>
		<path fill="none" stroke="#0A0707" stroke-width="2.713" stroke-linecap="round" d="M96.756,555.215
			c0-6.548-5.383-12.961-15.525-18.556"/>
		<g>
			<polygon fill="#0A0707" points="88.151,535.207 81.918,537.072 83.787,543.305 80.349,541.452 78.483,535.221 84.714,533.354 			
				"/>
		</g>
	</g>
</g>
<text transform="matrix(1 -0.0042 0.0042 1 93.7139 544.2148)" font-family="'MyriadPro-Regular'" font-size="18">2</text>
<g>
	<g>
		<line fill="none" stroke="#000000" stroke-width="3" x1="39.433" y1="610.959" x2="336.828" y2="176.846"/>
		<g>
			<polygon points="341.231,190.076 334.734,179.903 322.901,177.519 346.95,162.071 			"/>
		</g>
	</g>
</g>
<g id="path3156_2_" sodipodi:start="0" sodipodi:rx="51.490383" sodipodi:end="0.58835027" sodipodi:ry="52.307693" sodipodi:open="true" sodipodi:cy="181.44231" sodipodi:cx="166.73077" sodipodi:type="arc">
	<g>
		<path fill="none" stroke="#0A0707" stroke-width="2.713" stroke-linecap="round" d="M137.32,461.942
			c-1.297-6.03-6.387-11.851-14.852-16.914"/>
		<g>
			<polygon fill="#0A0707" points="141.225,456.039 137.195,461.146 132.089,457.113 132.545,460.992 137.651,465.022 
				141.681,459.917 			"/>
		</g>
	</g>
</g>
<text transform="matrix(1 -0.0042 0.0042 1 127.3867 445.0283)" font-family="'MyriadPro-Regular'" font-size="18">3 </text>
<g>
	<g>
		<line fill="none" stroke="#000000" stroke-width="3" x1="39.432" y1="610.959" x2="312.781" y2="152.323"/>
		<g>
			<polygon points="318.011,165.249 310.884,155.507 298.924,153.874 321.95,136.939 			"/>
		</g>
	</g>
</g>
<g id="path3156_5_" sodipodi:start="0" sodipodi:rx="51.490383" sodipodi:end="0.58835027" sodipodi:ry="52.307693" sodipodi:open="true" sodipodi:cy="181.44231" sodipodi:cx="166.73077" sodipodi:type="arc">
	<g>
		<path fill="none" stroke="#0A0707" stroke-width="2.713" stroke-linecap="round" d="M187.283,392.681
			c0-4.417-1.858-8.75-5.379-12.618"/>
		<g>
			<polygon fill="#0A0707" points="188.952,380.665 182.446,380.651 182.436,387.157 179.68,384.392 179.691,377.887 
				186.196,377.898 			"/>
		</g>
	</g>
</g>
<text transform="matrix(1 -0.0042 0.0042 1 190.1914 403.5283)" font-family="'MyriadPro-Regular'" font-size="18">4 </text>
<g>
	<g>
		<line fill="none" stroke="#000000" stroke-width="3" x1="39.432" y1="613.459" x2="337.332" y2="145.547"/>
		<g>
			<polygon points="342.179,158.621 335.342,148.673 323.436,146.688 346.95,130.439 			"/>
		</g>
	</g>
</g>
<g id="path3156_6_" sodipodi:start="0" sodipodi:rx="51.490383" sodipodi:end="0.58835027" sodipodi:ry="52.307693" sodipodi:open="true" sodipodi:cy="181.44231" sodipodi:cx="166.73077" sodipodi:type="arc">
	<g>
		<path fill="none" stroke="#0A0707" stroke-width="2" stroke-linecap="round" d="M241.61,291.517
			c-2.387-2.119-5.901-3.292-10.274-3.4"/>
		<g>
			<polygon fill="#0A0707" points="241.354,286.313 241.179,291.106 236.386,290.929 238.345,293.038 243.137,293.214 
				243.313,288.422 			"/>
		</g>
	</g>
</g>
<text transform="matrix(1 -0.0042 0.0042 1 224.6914 284.0283)" font-family="'MyriadPro-Regular'" font-size="18">5 </text>
<text transform="matrix(1 0 0 1 326.9502 341.1582)" font-family="'MyriadPro-Regular'" font-size="18">1) 0°+45°=45°</text>
<text transform="matrix(1 0 0 1 65.9502 185.6582)" font-family="'MyriadPro-Regular'" font-size="18">2) 45°+26.565°=71.565°</text>
<text transform="matrix(1 0 0 1 346.9502 182.1582)" font-family="'MyriadPro-Regular'" font-size="18">3) 71.565°-14.036°=57.529°</text>
<text transform="matrix(1 0 0 1 121.4502 144.1582)" font-family="'MyriadPro-Regular'" font-size="18">4) 57.529°+7.125°=64.654°</text>
<text transform="matrix(1 0 0 1 346.9502 147.1582)" font-family="'MyriadPro-Regular'" font-size="18">5) 64.64°-3.576°=61.078°</text>
</svg>
