<?xml version="1.0" encoding="utf-8"?>
<!-- Generator: Adobe Illustrator 16.0.1, SVG Export Plug-In . SVG Version: 6.00 Build 0)  -->
<!DOCTYPE svg PUBLIC "-//W3C//DTD SVG 1.1//EN" "http://www.w3.org/Graphics/SVG/1.1/DTD/svg11.dtd">
<svg version="1.1"
	 id="svg1333" xmlns:sodipodi="http://inkscape.sourceforge.net/DTD/sodipodi-0.dtd" xmlns:dc="http://purl.org/dc/elements/1.1/" xmlns:cc="http://web.resource.org/cc/" xmlns:inkscape="http://www.inkscape.org/namespaces/inkscape" xmlns:rdf="http://www.w3.org/1999/02/22-rdf-syntax-ns#" xmlns:svg="http://www.w3.org/2000/svg" sodipodi:version="0.32" sodipodi:docbase="C:\Documents and Settings\Matt\My Documents\PhD\Images\Modulation schemes\Constellations" sodipodi:docname="BPSKSVG.svg" inkscape:version="0.43"
	 xmlns="http://www.w3.org/2000/svg" xmlns:xlink="http://www.w3.org/1999/xlink" x="0px" y="0px" width="1197.975px"
	 height="1188px" viewBox="0 0 1197.975 1188" enable-background="new 0 0 1197.975 1188" xml:space="preserve">
<sodipodi:namedview  id="base" bordercolor="#666666" pagecolor="#ffffff" gridtolerance="1px" borderopacity="1.0" inkscape:cx="313.77055" inkscape:zoom="1.2409137" inkscape:cy="321.94021" gridspacingy="5px" showgrid="true" gridspacingx="5px" gridempspacing="5" inkscape:grid-points="true" inkscape:pageopacity="0.0" inkscape:window-height="966" inkscape:grid-bbox="true" inkscape:document-units="px" inkscape:window-width="1400" inkscape:pageshadow="2" inkscape:window-x="-4" inkscape:current-layer="layer1" inkscape:window-y="-4">
	</sodipodi:namedview>
<g id="path3965">
	<g>
		<path fill="none" stroke="#000000" stroke-width="3" d="M294.34,34.319c0,551.5,0,12.412,0,539.107"/>
		<g>
			<polygon points="283.12,37.6 294.34,18.171 305.56,37.6 			"/>
		</g>
		<g>
			<polygon points="283.12,570.141 294.34,589.57 305.56,570.141 			"/>
		</g>
	</g>
</g>
<text transform="matrix(1 0 0 1 309.1108 37.5996)" font-family="'ArialMT'" font-size="24">Q</text>
<text transform="matrix(1 0 0 1 572.4712 292.0693)" font-family="'Verdana'" font-size="24">I</text>
<path fill="none" stroke="#000000" d="M75.808,198.922"/>
<path fill="none" stroke="#000000" d="M55.79,166.07"/>
<path fill="none" stroke="#000000" d="M1071.845,593.239"/>
<path fill="none" stroke="#000000" d="M714.845-11"/>
<path fill="none" stroke="#000000" d="M229.868,333.591"/>
<path fill="none" stroke="#000000" d="M79.868,333.591"/>
<text transform="matrix(1 0 0 1 2.9507 37.5703)" font-family="'MyriadPro-Regular'" font-size="24">a</text>
<text transform="matrix(1 0 0 1 16.6069 37.5703)" font-family="'MyriadPro-Regular'" font-size="24">)</text>
<g id="path3965_1_">
	<g>
		<path fill="none" stroke="#000000" stroke-width="3" d="M565.803,302.069c-557.251,0-12.535,0-544.736,0"/>
		<g>
			<polygon points="562.521,290.85 581.95,302.069 562.521,313.289 			"/>
		</g>
		<g>
			<polygon points="24.351,290.85 4.921,302.069 24.351,313.289 			"/>
		</g>
	</g>
</g>
<g id="path3965_6_">
	<g>
		<path fill="none" stroke="#000000" stroke-width="3" d="M1163.488,303.2c-551.499,0-12.411,0-539.107,0"/>
		<g>
			<polygon points="1160.205,291.981 1179.635,303.2 1160.205,314.42 			"/>
		</g>
		<g>
			<polygon points="627.665,291.981 608.235,303.2 627.665,314.42 			"/>
		</g>
	</g>
</g>
<path fill="none" stroke="#000000" d="M998.884,84.668"/>
<path fill="none" stroke="#000000" d="M1031.735,64.65"/>
<path fill="none" stroke="#000000" d="M594.217,477.65"/>
<path fill="none" stroke="#000000" d="M219.401,0"/>
<path fill="none" stroke="#000000" d="M864.215,238.729"/>
<path fill="none" stroke="#000000" d="M864.215,88.729"/>
<g>
	<g>
		
			<line fill="none" stroke="#000000" stroke-width="2" stroke-miterlimit="10" x1="894.216" y1="303.28" x2="1011.783" y2="182.184"/>
		<g>
			<polygon points="1012.536,187.49 1010.798,183.198 1006.552,181.49 1016.542,177.281 			"/>
		</g>
	</g>
</g>
<g>
	<g>
		<g>
			<g>
				<path fill="none" stroke="#0A0707" stroke-width="2" stroke-linecap="round" d="M925.106,304.727
					c3.757-7.198,4.736-13.696,2.503-20.344"/>
				<g>
					<polygon fill="#0A0707" points="922.415,274.99 934.897,285.529 927.759,285.212 923.946,291.254 					"/>
				</g>
			</g>
		</g>
		<g>
			<polyline fill="#0A0707" points="930.663,303.664 925.642,303.672 922.147,301.044 			"/>
		</g>
	</g>
</g>
<g id="path3965_2_">
	<g>
		<path fill="none" stroke="#000000" stroke-width="3" d="M895.737,574.664c0-557.252,0-12.535,0-544.739"/>
		<g>
			<polygon points="906.956,571.381 895.737,590.811 884.517,571.381 			"/>
		</g>
		<g>
			<polygon points="906.956,33.21 895.737,13.781 884.517,33.21 			"/>
		</g>
	</g>
</g>
<text transform="matrix(1 0 0 1 910.165 32.25)" font-family="'ArialMT'" font-size="24">Q</text>
<text transform="matrix(1 0 0 1 1164.5264 292.7197)" font-family="'Verdana'" font-size="24">I</text>
<text transform="matrix(1 0 0 1 938.5049 294.7207)" font-family="'MyriadPro-Regular'" font-size="24">x</text>
<text transform="matrix(1 0 0 1 617.5732 36.2207)" font-family="'MyriadPro-Regular'" font-size="24">b)</text>
<path fill="none" stroke="#000000" d="M136.13,580.859"/>
<path fill="none" stroke="#000000" d="M1082.704,160.51"/>
<path fill="none" stroke="#000000" d="M2313.903,389.536"/>
<path fill="none" stroke="#000000" d="M2333.92,422.389"/>
<path fill="none" stroke="#000000" d="M1190.975,32.651"/>
<path fill="none" stroke="#000000" d="M1072.975,232.889"/>
<path fill="none" stroke="#000000" d="M2159.842,254.868"/>
<path fill="none" stroke="#000000" d="M2309.842,254.868"/>
<path fill="none" stroke="#000000" d="M2170.309,588.458"/>
<line fill="none" x1="267.487" y1="710.5" x2="267.487" y2="754.5"/>
<g>
	<path fill="none" d="M1400.487,1100.5"/>
</g>
<g>
	<path fill="none" d="M1255.487,1093.5"/>
</g>
<g>
	<path fill="none" d="M1070.542,581.281"/>
</g>
<g>
	<path fill="none" d="M1070.542,518.281"/>
</g>
<line fill="none" stroke="#0A0707" stroke-width="3" x1="886.542" y1="177.281" x2="906.542" y2="177.281"/>
<text transform="matrix(1 0 0 1 821.5049 183.7207)" font-family="'MyriadPro-Regular'" font-size="24">j sin(x)</text>
<g>
	<g>
		
			<line fill="none" stroke="#000000" stroke-width="2" stroke-miterlimit="10" x1="1016.378" y1="178.443" x2="899.282" y2="61.034"/>
		<g>
			<polygon points="904.413,60.282 900.264,62.018 898.612,66.259 894.542,56.281 			"/>
		</g>
	</g>
</g>
<text transform="matrix(1 0 0 1 972.5049 250.7207)" font-family="'MyriadPro-Regular'" font-size="24">e</text>
<text transform="matrix(1 0 0 1 985.5049 239.7207)" font-family="'MyriadPro-Regular'" font-size="24">jx</text>
<text transform="matrix(1 0 0 1 963.5049 111.7207)" font-family="'MyriadPro-Regular'" font-size="24">-e</text>
<text transform="matrix(1 0 0 1 978.5049 97.7207)" font-family="'MyriadPro-Regular'" font-size="24">-jx</text>
<line fill="none" stroke="#0A0707" stroke-width="3" x1="886.542" y1="55.281" x2="906.542" y2="55.281"/>
<text transform="matrix(1 0 0 1 810.5049 62.7207)" font-family="'MyriadPro-Regular'" font-size="24">2j sin(x)</text>
<g>
	<g>
		
			<line fill="none" stroke="#000000" stroke-width="2" stroke-miterlimit="10" x1="294.161" y1="301.63" x2="411.729" y2="180.533"/>
		<g>
			<polygon points="412.481,185.839 410.743,181.548 406.497,179.84 416.487,175.631 			"/>
		</g>
	</g>
</g>
<g>
	<g>
		<g>
			<g>
				<path fill="none" stroke="#0A0707" stroke-width="2" stroke-linecap="round" d="M325.052,303.076
					c3.757-7.198,4.736-13.696,2.503-20.344"/>
				<g>
					<polygon fill="#0A0707" points="322.36,273.34 334.843,283.879 327.704,283.562 323.892,289.604 					"/>
				</g>
			</g>
		</g>
		<g>
			<polyline fill="#0A0707" points="330.608,302.013 325.587,302.022 322.093,299.394 			"/>
		</g>
	</g>
</g>
<text transform="matrix(1 0 0 1 338.4507 293.0703)" font-family="'MyriadPro-Regular'" font-size="24">x</text>
<text transform="matrix(1 0 0 1 330.4507 238.0703)" font-family="'MyriadPro-Regular'" font-size="24">e</text>
<text transform="matrix(1 0 0 1 343.4507 227.0703)" font-family="'MyriadPro-Regular'" font-size="24">jx</text>
<g>
	<g>
		
			<line fill="none" stroke="#000000" stroke-width="2" stroke-miterlimit="10" x1="415.324" y1="177.467" x2="536.421" y2="295.035"/>
		<g>
			<polygon points="531.114,295.788 535.406,294.049 537.114,289.803 541.323,299.793 			"/>
		</g>
	</g>
</g>
<text transform="matrix(1 0 0 1 480.4507 234.0703)" font-family="'MyriadPro-Regular'" font-size="24">e</text>
<text transform="matrix(1 0 0 1 493.4507 223.0703)" font-family="'MyriadPro-Regular'" font-size="24">-jx</text>
<line fill="none" stroke="#0A0707" stroke-width="3" x1="420.487" y1="292.631" x2="420.487" y2="310.661"/>
<text transform="matrix(1 0 0 1 392.4507 334.0703)" font-family="'MyriadPro-Regular'" font-size="24">cos(x)</text>
<line fill="none" stroke="#0A0707" stroke-width="3" x1="543.487" y1="292.631" x2="543.487" y2="310.661"/>
<text transform="matrix(1 0 0 1 506.4507 333.0703)" font-family="'MyriadPro-Regular'" font-size="24">2 cos(x)</text>
</svg>
